<svg width="210" height="210" viewBox="20 25 210 210" xmlns="http://www.w3.org/2000/svg">
  <style type="text/css">.st0{fill:#f4b525;}.st1{fill:#e5a920;}.st2{fill:#ffffff;}</style>
  <g>
    <polygon class="st0"
             points="125,30 125,30 125,30 31.9,63.2 46.1,186.3 125,230 125,230 125,230 203.9,186.3 218.1,63.2  "/>
    <polygon class="st1"
             points="125,30 125,52.2 125,52.1 125,153.4 125,153.4 125,230 125,230 203.9,186.3 218.1,63.2 125,30  "/>
    <!--<path class="st2" d="m125,183.07499q-18.15,0 -27.6,-13.8q-9.45,-13.8 -9.45,-40.2q0,-26.55 9.45,-40.35q9.45,-13.8 27.6,-13.8q18.15,0 27.6,13.73q9.45,13.72 9.45,40.27q0,26.55 -9.45,40.35q-9.45,13.8 -27.6,13.8m0,-10.35q12.6,0 18.6,-10.65q6,-10.65 6,-33.15q0,-22.65 -5.93,-33.15q-5.92,-10.5 -18.67,-10.5q-12.6,0 -18.6,10.58q-6,10.57 -6,33.07q0,22.5 6,33.15q6,10.65 18.6,10.65z"/>-->
    <path class="st2"
          d="m103.94,172.175q-1.69,2.86 -4.29,2.86q-1.69,0 -2.92,-1.17q-1.24,-1.17 -1.24,-3.12q0,-1.56 0.91,-2.99l49.66,-85.93q1.69,-2.86 4.29,-2.86q1.69,0 2.93,1.24q1.23,1.23 1.23,3.05q0,1.43 -0.78,2.99l-49.79,85.93m-10.14,-36.01q-10.4,0 -16.25,-7.08q-5.85,-7.09 -5.85,-21q0,-13.78 5.85,-20.86q5.85,-7.09 16.25,-7.09q10.4,0 16.25,7.09q5.85,7.08 5.85,20.86q0,13.91 -5.85,21q-5.85,7.08 -16.25,7.08m0,-7.54q6.37,0 9.43,-4.94q3.05,-4.94 3.05,-15.6q0,-10.53 -3.05,-15.47q-3.06,-4.94 -9.43,-4.94q-6.37,0 -9.49,4.94q-3.12,4.94 -3.12,15.47q0,10.66 3.12,15.6q3.12,4.94 9.49,4.94m62.4,45.11q-10.4,0 -16.25,-7.08q-5.85,-7.09 -5.85,-21q0,-13.78 5.85,-20.86q5.85,-7.09 16.25,-7.09q10.53,0 16.32,7.02q5.78,7.02 5.78,20.93q0,13.91 -5.78,21q-5.79,7.08 -16.32,7.08m0,-7.54q6.5,0 9.55,-4.87q3.06,-4.88 3.06,-15.67q0,-10.53 -3.12,-15.47q-3.12,-4.94 -9.49,-4.94q-6.37,0 -9.42,4.94q-3.06,4.94 -3.06,15.47q0,10.66 3.06,15.6q3.05,4.94 9.42,4.94z"/>
  </g>
</svg>
