<?xml version="1.0" standalone="no"?>
<!DOCTYPE svg PUBLIC "-//W3C//DTD SVG 20010904//EN"
  "http://www.w3.org/TR/2001/REC-SVG-20010904/DTD/svg10.dtd">
<svg version="1.0" xmlns="http://www.w3.org/2000/svg"
     width="210.000000pt" height="210.000000pt" viewBox="0 0 210.000000 210.000000"
     preserveAspectRatio="xMidYMid meet">
  <metadata>
    Created by potrace 1.11, written by Peter Selinger 2001-2013
  </metadata>
  <g transform="translate(0.000000,210.000000) scale(0.100000,-0.100000)"
     fill="#000000" stroke="none">
    <path d="M587 1885 c-252 -90 -461 -165 -463 -168 -4 -4 134 -1230 139 -1233
1 0 179 -98 395 -218 l394 -217 393 217 c369 204 394 220 399 248 21 121 137
1199 130 1205 -9 8 -910 331 -922 331 -4 -1 -213 -74 -465 -165z m741 -337 c7
-7 12 -21 12 -33 0 -25 -502 -896 -524 -910 -24 -15 -51 7 -51 41 0 19 83 171
249 459 137 237 255 436 264 443 20 15 35 15 50 0z m-488 -23 c15 -8 40 -28
54 -46 48 -57 59 -96 60 -209 1 -96 -1 -110 -27 -163 -38 -77 -84 -107 -170
-114 -161 -13 -247 98 -235 307 8 134 48 200 144 236 45 17 131 11 174 -11z
m615 -374 c91 -41 131 -135 123 -285 -8 -146 -59 -221 -167 -245 -95 -21 -192
21 -234 102 -49 95 -45 267 10 355 53 85 171 117 268 73z"/>
    <path d="M660 1442 c-65 -66 -66 -272 -1 -345 23 -25 35 -30 72 -30 99 0 124
41 124 203 0 96 -3 120 -19 147 -37 61 -127 74 -176 25z"/>
    <path d="M1304 1082 c-44 -28 -64 -85 -64 -185 0 -45 5 -99 10 -119 24 -85
131 -119 190 -60 50 51 66 232 27 309 -35 67 -106 91 -163 55z"/>
  </g>
</svg>
